<svg xmlns="http://www.w3.org/2000/svg" width="16" height="15.914" viewBox="0 0 16 15.914">
  <g id="Group_1" data-name="Group 1" transform="translate(191 -688.043)">
    <path id="Op_component_1" data-name="Op component 1" d="M458,163l1,2h3v8H450v-8h3l1-2h4m0-2h-4a2,2,0,0,0-1.789,1.105l-.447.895H450a2,2,0,0,0-2,2v8a2,2,0,0,0,2,2h12a2,2,0,0,0,2-2v-8a2,2,0,0,0-2-2h-1.764l-.447-.895A2,2,0,0,0,458,161Z" transform="translate(-639 528)" fill="#0066eb" opacity="0"/>
    <path id="Op_component_2" data-name="Op component 2" d="M456,168a1,1,0,1,1-1,1,1,1,0,0,1,1-1m0-2a3,3,0,1,0,3,3,3,3,0,0,0-3-3Z" transform="translate(-639 528)" fill="#0066eb" opacity="0"/>
    <path id="Op_component_1-2" data-name="Op component 1" d="M589.89,163.066h-1.741l-.445-.885a1.978,1.978,0,0,0-1.771-1.1h-3.957a1.941,1.941,0,0,0-.643.109l1.87,1.88h2.73l.989,1.989h2.968v4.734l1.979,1.989v-6.724A1.99,1.99,0,0,0,589.89,163.066Z" transform="translate(-766.868 527.961)" fill="#fff"/>
    <path id="Op_component_2-2" data-name="Op component 2" d="M591.48,174.2l0,0-1.593-1.6v.006l-3.019-3.035v0L583.43,166.1h0l-1.976-1.986,0,0-1.474-1.482,0,0-2.247-2.259a.985.985,0,0,0-1.4,0,1,1,0,0,0,0,1.406l1.318,1.325h-.005a1.868,1.868,0,0,0-.93.458,2,2,0,0,0-.673,1.492v7.957A1.99,1.99,0,0,0,578.019,175h11.461l.7.7a.985.985,0,0,0,1.4,0,1,1,0,0,0,0-1.406Zm-8.4-5.623,0,0,1.327,1.334,0,0a.889.889,0,0,1-.455.119,1,1,0,0,1-.989-.995A.9.9,0,0,1,583.084,168.576Zm-5.065,4.436v-7.957h1.569l2.075,2.086,0,0a2.833,2.833,0,0,0-.495.9,2.772,2.772,0,0,0-.178.995,1.1,1.1,0,0,0,.02.259A2.968,2.968,0,0,0,583.7,172a1.08,1.08,0,0,0,.257.02,2.727,2.727,0,0,0,.989-.179,2.8,2.8,0,0,0,.89-.5l0,0,1.665,1.674Z" transform="translate(-766.868 527.961)" fill="#fff"/>
  </g>
</svg>
