<svg xmlns="http://www.w3.org/2000/svg" width="15.828" height="15.999" viewBox="0 0 15.828 15.999">
  <g id="Group_2" data-name="Group 2" transform="translate(138.914 -723)">
    <path id="mic" d="M709,176a1,1,0,1,1,0-2h2v-1.09a6.006,6.006,0,0,1-5-5.91,1,1,0,0,1,2,0,4,4,0,1,0,8,0,1,1,0,0,1,2,0,6.006,6.006,0,0,1-5,5.91V174h2a1,1,0,1,1,0,2Zm0-9v-4a3,3,0,1,1,6,0v4a3,3,0,1,1-6,0Zm2-4v4a1,1,0,1,0,2,0v-4a1,1,0,1,0-2,0Z" transform="translate(-843 563)" fill="#0066eb" opacity="0"/>
    <path id="mic_no" d="M750.179,175.709l-3.4-3.421,0,0a5.62,5.62,0,0,1-.97.418,4.96,4.96,0,0,1-.86.219v1.084h1.979a1.207,1.207,0,0,1,.2.02,1,1,0,0,1,.772.776,1.214,1.214,0,0,1,.02.2,1.038,1.038,0,0,1-.416.815,1.012,1.012,0,0,1-.573.179h-5.936a.995.995,0,0,1,0-1.989h1.979v-1.084a5.965,5.965,0,0,1-4.946-5.878.982.982,0,0,1,.989-.995,1.219,1.219,0,0,1,.2.02,1,1,0,0,1,.771.776,1.221,1.221,0,0,1,.02.2,4.01,4.01,0,0,0,2.4,3.65,3.848,3.848,0,0,0,1.553.328.96.96,0,0,0,.168-.01,3.466,3.466,0,0,0,1.157-.229l0,0-.8-.805,0,0a3.04,3.04,0,0,1-.525.049,2.721,2.721,0,0,1-.989-.179,2.962,2.962,0,0,1-1.8-1.81,2.773,2.773,0,0,1-.178-.994v-.583l-4.656-4.682a1,1,0,0,1,0-1.406.984.984,0,0,1,1.4,0l3.257,3.275v-.006l1.979,1.989v.006l1.858,1.868,0,0,1.425,1.432,0,0,.7.706,0,0,1.394,1.4,0,0,3.235,3.253a1,1,0,0,1,0,1.407.984.984,0,0,1-1.4,0Zm-2.327-7.964a4.045,4.045,0,0,0,.059-.7.989.989,0,1,1,1.978,0,5.889,5.889,0,0,1-.455,2.287Zm-2.909-2.924V163.07a.994.994,0,0,0-.989-.994,1.006,1.006,0,0,0-.969.776l-1.474-1.481a2.968,2.968,0,0,1,5.412,1.7v3.74Z" transform="translate(-874.953 562.999)" fill="#fff"/>
  </g>
</svg>
