<svg xmlns="http://www.w3.org/2000/svg" width="15.429" height="16" viewBox="0 0 15.429 16">
  <g id="Group_5" data-name="Group 5" transform="translate(150 -612)">
    <path id="Op_component_1" data-name="Op component 1" d="M686.712,72.4l-.723-.417.723-.38a2,2,0,0,0,.734-2.728l-1-1.74a2.006,2.006,0,0,0-2.74-.735l-.72.416L683,66a2,2,0,0,0-2-2h-2a2,2,0,0,0-2,2v.826l-.7-.427a2.006,2.006,0,0,0-2.74.735l-1,1.74a2,2,0,0,0,.734,2.728l.709.409-.709.388a2,2,0,0,0-.734,2.728l1,1.74a2.006,2.006,0,0,0,2.74.735l.72-.416-.02.814a2,2,0,0,0,2,2h2a2,2,0,0,0,2-2v-.826l.7.427a2.006,2.006,0,0,0,2.74-.735l1-1.74A2,2,0,0,0,686.712,72.4Zm-1.726,1.314.723.417-1,1.74-.72-.416a1.969,1.969,0,0,0-1.971,0l-.028.016a1.959,1.959,0,0,0-.987,1.7V78h-2v-.826a1.961,1.961,0,0,0-.987-1.7l-.028-.016a1.967,1.967,0,0,0-1.971,0l-.72.416-1-1.74.709-.409a1.986,1.986,0,0,0,0-3.442l-.709-.409,1-1.74.72.416a1.968,1.968,0,0,0,1.971,0l.028-.016a1.958,1.958,0,0,0,.987-1.7V66h2v.826a1.961,1.961,0,0,0,.987,1.7l.028.016a1.966,1.966,0,0,0,1.971,0l.72-.416,1,1.74-.723.417a1.961,1.961,0,0,0-.981,1.7v.024A1.958,1.958,0,0,0,684.987,73.713Z" transform="translate(-822.284 548)" fill="#0066eb"/>
    <circle id="Op_component_2" data-name="Op component 2" cx="2" cy="2" r="2" transform="translate(-144.284 618)" fill="#0066eb"/>
  </g>
</svg>
